<svg height="512pt" viewBox="0 0 512 512" width="512pt" xmlns="http://www.w3.org/2000/svg" xmlns:xlink="http://www.w3.org/1999/xlink"><linearGradient id="a" gradientUnits="userSpaceOnUse" x1="255.999902" x2="255.999902" y1=".000137" y2="512.0001"><stop offset="0" stop-color="#2af598"/><stop offset="1" stop-color="#009efd"/></linearGradient><path d="m198.914062 340.085938c0 5.296874 2.621094 10.246093 7.007813 13.238281 5.316406 3.621093 9.816406 5.476562 11.539063 5.84375 7.765624 1.136719 96.75 10.648437 155.097656 16.8125l-4.203125 39.777343c-45.453125-4.800781-151.835938-16.089843-158-17.222656-10.867188-2-21.554688-8.476562-26.957031-12.15625-5.148438-3.511718-9.582032-7.804687-13.222657-12.648437l-.183593.1875-95.984376-94.191407c-3.8125-3.746093-8.855468-5.769531-14.195312-5.726562-5.339844.050781-10.34375 2.175781-14.085938 5.988281-3.742187 3.816407-5.773437 8.855469-5.726562 14.199219.050781 5.339844 2.179688 10.34375 5.992188 14.085938l148.4375 145.667968c11.859374 11.648438 27.550781 18.058594 44.171874 18.058594h273.398438v40h-273.398438c-27.167968 0-52.804687-10.480469-72.191406-29.507812l-148.433594-145.667969c-11.441406-11.226563-17.824218-26.234375-17.97265575-42.261719-.15234425-16.023438 5.94921875-31.148438 17.17187475-42.585938 11.226563-11.441406 26.234375-17.824218 42.261719-17.972656 16-.144531 31.148438 5.945313 42.589844 17.171875l63.574218 62.394531c5.148438-9.53125 12.972657-17.40625 22.464844-22.613281-38.902344-29.617187-64.066406-76.402343-64.066406-128.957031 0-89.328125 72.671875-162 162-162 32.480469 0 62.753906 9.617188 88.136719 26.140625l-28.050781 29.714844c-17.746094-10.085938-38.253907-15.855469-60.085938-15.855469-67.269531 0-122 54.730469-122 122s54.730469 122 122 122c66.226562 0 120.296875-53.042969 121.960938-118.878906l36.175781-38.320313c2.523437 11.335938 3.863281 23.113281 3.863281 35.199219 0 50.125-22.886719 95.003906-58.757812 124.742188 36.699218 5.574218 71.507812 19.679687 102.097656 41.570312l20.660156 14.78125v49.1875l-43.9375-31.4375c-32.953125-23.582031-71.785156-36.304688-112.300781-36.792969-.824219-.011719-1.636719-.019531-2.476563-.015625l-138.363281.054688c-8.832031-.003906-16.007813 7.175781-16.007813 15.996094zm31.867188-220.683594-27.5625 28.988281 87.238281 82.933594 162.085938-171.699219-29.085938-27.457031-134.53125 142.507812zm0 0" fill="url(#a)"/></svg>