<svg height="512" viewBox="0 0 60 52" width="512" xmlns="http://www.w3.org/2000/svg" xmlns:xlink="http://www.w3.org/1999/xlink"><linearGradient id="linearGradient-1" x1="14.663%" x2="85.338%" y1="14.663%" y2="85.338%"><stop offset="0" stop-color="#d3dff2"/><stop offset=".172" stop-color="#d3dff2"/><stop offset=".2" stop-color="#d3dff2"/><stop offset=".2" stop-color="#dae2f2"/><stop offset=".201" stop-color="#ebeaf2"/><stop offset=".201" stop-color="#f6eff2"/><stop offset=".202" stop-color="#fdf2f2"/><stop offset=".205" stop-color="#fff3f2"/><stop offset=".252" stop-color="#fff3f2"/><stop offset=".26" stop-color="#fff3f2"/><stop offset=".26" stop-color="#d3dff2"/><stop offset=".397" stop-color="#d3dff2"/><stop offset=".42" stop-color="#d3dff2"/><stop offset=".42" stop-color="#dae2f2"/><stop offset=".421" stop-color="#ebeaf2"/><stop offset=".421" stop-color="#f6eff2"/><stop offset=".422" stop-color="#fdf2f2"/><stop offset=".425" stop-color="#fff3f2"/><stop offset=".489" stop-color="#fff3f2"/><stop offset=".5" stop-color="#fff3f2"/><stop offset=".5" stop-color="#f8f0f2"/><stop offset=".5" stop-color="#e7e8f2"/><stop offset=".5" stop-color="#dce3f2"/><stop offset=".5" stop-color="#d5e0f2"/><stop offset=".501" stop-color="#d3dff2"/><stop offset=".706" stop-color="#d3dff2"/><stop offset=".74" stop-color="#d3dff2"/><stop offset=".741" stop-color="#fff3f2"/><stop offset=".835" stop-color="#fff3f2"/><stop offset=".85" stop-color="#fff3f2"/><stop offset=".851" stop-color="#d3dff2"/></linearGradient><g id="Page-1" fill="none" fill-rule="evenodd"><g id="042---Match-Expiry-" fill-rule="nonzero" transform="translate(-1)"><path id="Shape" d="m60.02 16.73c-.0170331 2.8683643-.7126567 5.6919791-2.03 8.24-2.6269678-4.8924887-7.475528-8.1957802-12.99-8.85-1.3285335-.1599968-2.6714665-.1599968-4 0-7.4193812.8804261-13.394282 6.5018639-14.7249478 13.8538497-1.3306657 7.3519858 2.294843 14.7110408 8.9349478 18.1361503-.95.79-1.93 1.6-2.93 2.43-.7442706.6101372-1.8157294.6101372-2.56 0-16.76-13.93-27.74-22.44-27.74-33.81 0-8.53 5.92-15.73 14.51-15.73 5.7538548.0514765 11.1404346 2.83571829 14.51 7.5 3.3695654-4.66428171 8.7561452-7.4485235 14.51-7.5 8.59 0 14.51 7.2 14.51 15.73z" fill="#e8edfc"/><path id="Shape" d="m45.51 1c-.539 0-1.057.031-1.566.075 7.806.753 13.076 7.609 13.076 15.655-.0023505 1.8617158-.3038609 3.7109574-.893 5.477.7099883.8577651 1.3339855 1.7832102 1.863 2.763 1.3173433-2.5480209 2.0129669-5.3716357 2.03-8.24 0-8.53-5.92-15.73-14.51-15.73z" fill="#cad9fc"/><path id="Shape" d="m60 33c.0010434 9.1291872-7.2085549 16.62932-16.3306634 16.9887611-9.1221084.3594411-16.8994975-6.5501551-17.616782-15.6511201-.7172846-9.100965 5.881656-17.1436189 14.9474454-18.217641 1.3285335-.1599968 2.6714665-.1599968 4 0 8.5593247 1.0044807 15.0084893 8.2619405 15 16.88z" fill="#a4c2f7"/><path id="Shape" d="m57.99 24.97c-2.6269678-4.8924887-7.475528-8.1957802-12.99-8.85-.6635979-.0807242-1.3315107-.120799-2-.12-.508 0-1.007.03-1.5.074.167.016.336.026.5.046 8.6435431 1.0327654 15.1088448 8.4303897 14.9749372 17.1343836-.1339076 8.703994-6.8237149 15.899232-15.4949372 16.6656164.5.045 1.007.075 1.52.075 5.9749282-.0040954 11.5095557-3.1429408 14.5798656-8.2686584 3.07031-5.1257176 3.2260001-11.4865518.4101344-16.7563416z" fill="#7facfa"/><circle id="Oval" cx="43" cy="33" fill="url(#linearGradient-1)" r="12"/><path id="Shape" d="m45 12v4.12c-1.3285335-.1599968-2.6714665-.1599968-4 0v-4.12z" fill="#a4c2f7"/><rect id="Rectangle-path" fill="#a4c2f7" height="4" rx="2" width="12" x="37" y="8"/><path id="Shape" d="m29.72 50.54c.7442706.6101372 1.8157294.6101372 2.56 0l.22-.183c-16.635-13.82-27.52-22.307-27.52-33.627 0-8.046 5.27-14.9 13.076-15.655-.509-.044-1.027-.075-1.566-.075-8.59 0-14.51 7.2-14.51 15.73 0 11.37 10.98 19.88 27.74 33.81z" fill="#fff"/><path id="Shape" d="m4.692 24.032-1.811.849c-1.23166534-2.541919-1.88108704-5.3264726-1.901-8.151h2c.01967329 2.5311323.60458625 5.0258954 1.712 7.302z" fill="#fff"/><g fill="#428dff"><path id="Shape" d="m2.474 21.7c-.55228475.0027614-1.00223858-.4427153-1.005-.995s.44271525-1.0022386.995-1.005h.01c.55228475 0 1 .4477153 1 1s-.44771525 1-1 1z"/><path id="Shape" d="m45.51 0c-5.613277.01712667-10.9290491 2.5262737-14.51 6.849-3.5809509-4.3227263-8.896723-6.83187333-14.51-6.849-8.842 0-15.51 7.192-15.51 16.73 0 .5522847.44771525 1 1 1s1-.4477153 1-1c0-8.397 5.808-14.73 13.51-14.73 5.410278.07511729 10.4720691 2.68357042 13.673 7.046.1844218.28297793.4992311.45373472.837.454.3381237.00007263.6533845-.17072498.838-.454 3.1905412-4.37405294 8.2582893-6.98576688 13.672-7.046 7.7 0 13.51 6.333 13.51 14.73-.0060842 2.0894604-.4064224 4.1590056-1.18 6.1-.9837946-1.4307053-2.1678704-2.7127806-3.516-3.807l1.53-2.506c.1861354-.3051048.1953601-.6863353.0241993-1.0000857-.1711609-.3137504-.4967038-.5123545-.8540001-.521-.3572962-.0086456-.6920638.1739809-.8781992.4790857l-1.452 2.379c-2.0337815-1.3046588-4.3109992-2.1833641-6.694-2.583v-2.271h1c1.6568542 0 3-1.3431458 3-3 0-1.65685425-1.3431458-3-3-3h-8c-1.6568542 0-3 1.34314575-3 3 0 1.6568542 1.3431458 3 3 3h1v2.271c-2.3832976.4008592-4.6605342 1.2809325-6.694 2.587l-1.452-2.379c-.1861354-.3051048-.520903-.4877312-.8781992-.4790857-.3572962.0086456-.6828392.2072496-.854.521-.1711609.3137504-.1619362.6949809.0241992 1.0000857l1.53 2.506c-4.5250979 3.6524851-7.000906 9.2704333-6.6433547 15.074683.3575514 5.8042498 3.5041733 11.0758471 8.4433547 14.145317l-1.835 1.522c-.3740664.3080776-.9139336.3080776-1.288 0-4.743-3.952-9.531-7.844-14.094-11.94-2.2773404-2.0286232-4.4441254-4.1780498-6.491-6.439-2.03636492-2.1966261-3.74681407-4.6742348-5.079-7.357-.15165924-.323504-.46438549-.5415248-.82037778-.571936-.3559923-.0304112-.70116695.1314072-.9055.4245-.20433306.2930927-.23678146.672932-.08512222.996436 1.41248449 2.856561 3.22877342 5.4949454 5.393 7.834 2.095463 2.3181762 4.3147004 4.5213902 6.648 6.6 4.624 4.151 9.42 8.047 14.159 12 1.1138525.916036 2.7201475.916036 3.834 0l2.45-2.032c6.9286053 3.2724935 15.1703435 1.7890171 20.5229872-3.6940469 5.3526438-5.4830639 6.6373216-13.75812 3.1990128-20.6059531 1.2563699-2.5688687 1.9161274-5.3883918 1.93-8.248.006-9.544-6.662-16.736-15.504-16.736zm-7.51 10c0-.55228475.4477153-1 1-1h8c.5522847 0 1 .44771525 1 1 0 .5522847-.4477153 1-1 1h-8c-.5522847 0-1-.4477153-1-1zm4 3h2v2.051c-.333-.019-.662-.051-1-.051s-.667.032-1 .051zm1 36c-8.836556 0-16-7.163444-16-16s7.163444-16 16-16 16 7.163444 16 16c-.0104696 8.8322157-7.1677843 15.9895304-16 16z"/><path id="Shape" d="m43 20c-7.1797017 0-13 5.8202983-13 13s5.8202983 13 13 13 13-5.8202983 13-13c-.008266-7.1762751-5.8237249-12.991734-13-13zm0 24c-6.0751322 0-11-4.9248678-11-11s4.9248678-11 11-11 11 4.9248678 11 11c-.0071635 6.0721626-4.9278374 10.9928365-11 11z"/><path id="Shape" d="m49 32h-5v-6c0-.5522847-.4477153-1-1-1s-1 .4477153-1 1v7c0 .5522847.4477153 1 1 1h6c.5522847 0 1-.4477153 1-1s-.4477153-1-1-1z"/><path id="Shape" d="m14.729 6.16c-.5135937-.0025402-.9417546-.39373436-.9905338-.90501268s.2976859-.97637672.8015338-1.07598732c.6427869-.12184048 1.2957735-.1817813 1.95-.179.5522847 0 1 .44771525 1 1s-.4477153 1-1 1c-.5266509-.00253001-1.0523496.04501725-1.57.142-.0629737.01188897-.1269139.01791475-.191.018z"/><path id="Shape" d="m5.98 17.73c-.55228475 0-1-.4477153-1-1-.12083969-4.2055002 1.8099589-8.20732919 5.177-10.73.4525448-.29471317 1.0573308-.17687102 1.3661212.2661878s.2100139 1.05124969-.2231212 1.3738122c-2.82977839 2.14943084-4.44042211 5.5384937-4.32 9.09 0 .2652165-.10535684.5195704-.29289322.7071068s-.44189029.2928932-.70710678.2928932z"/></g></g></g></svg>