<svg viewBox="0 0 512 512" xmlns="http://www.w3.org/2000/svg"><path d="m512 256c0 141.386719-114.613281 256-256 256s-256-114.613281-256-256 114.613281-256 256-256 256 114.613281 256 256zm0 0" fill="#0c2093"/><path d="m107.914062 319.140625 189.507813 189.507813c104.652344-17.03125 188.011719-97.496094 209.292969-200.664063l-174.214844-174.210937zm0 0" fill="#0e1c66"/><path d="m107.914062 133.773438h224.585938v185.367187h-224.585938zm0 0" fill="#ffe600"/><path d="m219.847656 133.773438h112.652344v185.367187h-112.652344zm0 0" fill="#ffc200"/><path d="m190.632812 133.773438h59.148438v70.1875h-59.148438zm0 0" fill="#ff9100"/><path d="m219.847656 133.773438h29.933594v70.1875h-29.933594zm0 0" fill="#ff6e0b"/><path d="m297.515625 223.5c-65.144531 0-121.546875 37.394531-148.933594 91.886719 27.386719 54.492187 83.789063 91.886719 148.933594 91.886719s121.542969-37.394532 148.933594-91.886719c-27.390625-54.492188-83.789063-91.886719-148.933594-91.886719zm0 0" fill="#fff"/><path d="m297.515625 223.5c-.234375 0-.464844.011719-.699219.011719v183.75c.234375 0 .464844.011719.699219.011719 65.144531 0 121.542969-37.394532 148.933594-91.886719-27.390625-54.492188-83.789063-91.886719-148.933594-91.886719zm0 0" fill="#dce1eb"/><path d="m376.515625 315.386719c0 43.628906-35.371094 79-79 79-43.632813 0-79-35.371094-79-79 0-43.628907 35.367187-79 79-79 43.628906 0 79 35.371093 79 79zm0 0" fill="#82baff"/><path d="m297.515625 236.386719c-.234375 0-.464844.015625-.699219.019531v157.964844c.234375 0 .464844.015625.699219.015625 43.628906 0 79-35.367188 79-79 0-43.628907-35.371094-79-79-79zm0 0" fill="#69a8ff"/><path d="m331.199219 315.386719c0 18.605469-15.078125 33.6875-33.683594 33.6875s-33.6875-15.082031-33.6875-33.6875 15.082031-33.6875 33.6875-33.6875 33.683594 15.082031 33.683594 33.6875zm0 0" fill="#0c2093"/><path d="m297.515625 281.699219c-.234375 0-.464844.015625-.699219.019531v67.335938c.234375.003906.464844.019531.699219.019531 18.601563 0 33.683594-15.082031 33.683594-33.6875s-15.082031-33.6875-33.683594-33.6875zm0 0" fill="#0e1c66"/></svg>