<svg id="Capa_1" enable-background="new 0 0 512 512" height="512" viewBox="0 0 512 512" width="512" xmlns="http://www.w3.org/2000/svg"><path d="m303.216 133.438c-15.744-11.245-36.419-17.438-58.216-17.438h-40c-16.569 0-30 13.431-30 30v35c0 8.284 6.716 15 15 15h125c8.219 0 14.973-6.617 15-14.836.059-18.127-9.711-35.53-26.784-47.726z" fill="#ff6455"/><path d="m303.216 133.438c-13.066-9.333-29.533-15.172-47.216-16.893v79.455h59c8.219 0 14.973-6.617 15-14.836.059-18.127-9.711-35.53-26.784-47.726z" fill="#fa3226"/><path d="m405 446c-46.869 0-85-38.131-85-85s38.131-85 85-85 85 38.131 85 85-38.131 85-85 85zm0-140c-30.327 0-55 24.673-55 55s24.673 55 55 55 55-24.673 55-55-24.673-55-55-55z" fill="#323c46"/><path d="m270.507 361c0 8.284 6.716 15 15 15h119.493c8.284 0 15-6.716 15-15 0-4.143-1.68-7.894-4.396-10.609l-84.694-84.694c-5.857-5.858-15.355-5.858-21.213 0z" fill="#afd2e4"/><path d="m85 446c-46.869 0-85-38.131-85-85s38.131-85 85-85 85 38.131 85 85-38.131 85-85 85zm0-140c-30.327 0-55 24.673-55 55s24.673 55 55 55 55-24.673 55-55-24.673-55-55-55z" fill="#3c505a"/><path d="m85 376c-3.839 0-7.678-1.464-10.606-4.394-5.858-5.858-5.858-15.355 0-21.213l84.666-84.666c5.857-5.858 15.355-5.858 21.213 0s5.858 15.355 0 21.213l-84.666 84.666c-2.929 2.93-6.768 4.394-10.607 4.394z" fill="#c3e6f2"/><path d="m285.507 396h-81.013c-8.284 0-15-6.716-15-15v-29.357c-1.974-22.233-10.875-42.923-25.762-59.868-2.405-2.737-3.731-6.257-3.731-9.9v-100.875c0-8.284 6.716-15 15-15h135l36-27c2.597-1.947 5.754-3 9-3h142c8.284 0 15 6.716 15 15v30c0 41.355-33.645 75-75 75h-32c-53.938 0-99.719 41.963-104.493 95.643v29.357c-.001 8.284-6.717 15-15.001 15z" fill="#506ef0"/><path d="m497 136h-142c-3.246 0-6.403 1.053-9 3l-36 27h-54v230h29.507c8.284 0 15-6.716 15-15v-29.357c4.774-53.68 50.555-95.643 104.493-95.643h32c41.355 0 75-33.645 75-75v-30c0-8.284-6.716-15-15-15z" fill="#375ac8"/><path d="m195 96h-60c-8.284 0-15-6.716-15-15s6.716-15 15-15h60c8.284 0 15 6.716 15 15s-6.716 15-15 15z" fill="#506473"/><path d="m315.794 306h-141.52c5.778 9.313 10.024 19.4 12.618 30h116.231c2.655-10.747 6.979-20.841 12.671-30z" fill="#506473"/><path d="m256 336h47.124c2.654-10.747 6.978-20.841 12.671-30h-59.795z" fill="#3c505a"/><path d="m161.665 117.562c-7.086-3.515-11.665-10.958-11.665-18.962v-17.6c0-8.312-6.801-15.01-15.113-15-52.332.061-94.887 42.654-94.887 95v50c0 12.001 4.685 23.297 13.194 31.807 8.508 8.508 19.804 13.193 31.806 13.193 29.365 0 57.418 12.418 77.315 34.135.455.496.875 1.024 1.319 1.529.002.002.004.004.005.006 4.297 4.879 8.08 10.077 11.36 15.526v-173.19c0-4.837-2.324-9.386-6.258-12.2-2.214-1.583-4.577-3.005-7.076-4.244z" fill="#648cff"/></svg>