<svg id="Capa_1" enable-background="new 0 0 512 512" height="512" viewBox="0 0 512 512" width="512" xmlns="http://www.w3.org/2000/svg" xmlns:xlink="http://www.w3.org/1999/xlink"><linearGradient id="SVGID_1_" gradientUnits="userSpaceOnUse" x1="0" x2="512" y1="256" y2="256"><stop offset="0" stop-color="#80d8ff"/><stop offset="1" stop-color="#ea80fc"/></linearGradient><path d="m429.975 126.906c-3.709-5.564-9.954-8.906-16.641-8.906h-58.667v-58.667c0-11.046-8.954-20-20-20h-314.667c-11.046 0-20 8.954-20 20v314.667c0 11.046 8.954 20 20 20h39.008c.181 43.407 35.543 78.667 78.992 78.667s78.811-35.26 78.992-78.667h117.35c.181 43.407 35.543 78.667 78.992 78.667 43.454 0 78.82-35.269 78.992-78.684 10.894-.175 19.674-9.047 19.674-19.983v-118c0-9.644-.244-5.341-82.025-129.094zm-75.308 213.918v-64.824h117.333v64.824c-31.428-34.857-85.872-34.896-117.333 0zm47.963-182.824 52 78h-99.963v-78zm-362.63-78.667h274.667v274.667h-108.391c-30.473-52.247-105.886-52.577-136.551 0h-29.725zm98 353.334c-21.505 0-39-17.495-39-39s17.495-39 39-39 39 17.495 39 39-17.495 39-39 39zm275.333 0c-21.505 0-39-17.495-39-39s17.495-39 39-39 39 17.495 39 39-17.495 39-39 39z" fill="url(#SVGID_1_)"/></svg>