<svg height="512" viewBox="0 0 58 59" width="512" xmlns="http://www.w3.org/2000/svg"><g id="Page-1" fill="none" fill-rule="evenodd"><g id="037---Hold-Steering-Wheel" fill-rule="nonzero" transform="translate(-1)"><path id="Shape" d="m58.11 22.86-15.11-18.8c-8.1795421-4.1058632-17.817302-4.10957003-26-.01l-15.11 18.81c-2.97382894 11.7253481 1.64279194 24.0649629 11.5826587 30.9589091 9.9398668 6.8939463 23.1148158 6.8939463 33.0546826 0 9.9398668-6.8939462 14.5564876-19.233561 11.5826587-30.9589091zm-31.11 30.95c-7.9273099-.9939647-14.8402715-5.8675276-18.44-13l16.44-5.87c.5776997.5771956 1.255344 1.0447702 2 1.38zm6 0v-17.49c.744656-.3352298 1.4223003-.8028044 2-1.38l16.48 5.83c-3.5973407 7.158727-10.5296053 12.050325-18.48 13.04zm20.44-18.7-16.44-5.83c-.3818237-3.5563084-3.3832531-6.2527383-6.96-6.2527383s-6.5781763 2.6964299-6.96 6.2527383l-16.52 5.83c-.37489466-1.677411-.56270802-3.3912079-.56-5.11.00091696-.9591553.05767968-1.9174435.17-2.87l14.64-19.3c5.8839382-2.43894755 12.4960618-2.43894755 18.38 0l14.64 19.31c.1123167.949209.1690801 1.9041695.17 2.86.002708 1.7187921-.1851053 3.432589-.56 5.11z" fill="#3f5c6c"/><path id="Shape" d="m10.64 27.36c-.2235571.2213079-.4799023.4068209-.76.55-1.15937137.5937745-2.56943464.3715582-3.49-.55l-4.51-4.51c-.91228346-.9171175-1.13396476-2.315725-.55-3.47.13682326-.2898636.32291831-.5537802.55-.78 1.17127019-1.1698135 3.06872981-1.1698135 4.24 0l4.52 4.52c1.1698135 1.1712702 1.1698135 3.0687298 0 4.24z" fill="#f9c795"/><path id="Shape" d="m9.88 27.91c-1.15937137.5937745-2.56943464.3715582-3.49-.55l-4.51-4.51c-.91228346-.9171175-1.13396476-2.315725-.55-3.47.4139414-.239549.88184014-.3702855 1.36-.38.7953814.0007002 1.55793057.3172301 2.12.88l4.51 4.51c.9389911.9232586 1.1661204 2.3509282.56 3.52z" fill="#fdd7ad"/><path id="Shape" d="m16 24.26c-.2326906.2336652-.5031573.4263728-.8.57-1.1507042.5643026-2.5328042.3352918-3.44-.57l-8-8c-.90985672-.90894-1.13913949-2.2967041-.57-3.45.14362724-.2968427.33633479-.5673094.57-.8 1.16850928-1.1725805 3.06597271-1.1770557 4.24-.01l8 8c.567938.5632998.887395 1.3300874.887395 2.13s-.319457 1.5667002-.887395 2.13z" fill="#f9c795"/><path id="Shape" d="m15.22 24.83c-1.1507042.5643026-2.5328042.3352918-3.44-.57l-8-8c-.90985672-.90894-1.13913949-2.2967041-.57-3.45.40945186-.2058307.86172834-.3120472 1.32-.31.79681977.0033485 1.55957218.3235606 2.12.89l8 8c.9052918.9071958 1.1343026 2.2892958.57 3.44z" fill="#fdd7ad"/><path id="Shape" d="m19 19.75c-.3497621.2170021-.7418433.3567876-1.15.41-.6035173.0809339-1.2173747-.0237009-1.76-.3-.2800977-.1431791-.5364429-.3286921-.76-.55l-8-8c-.95245445-.9493465-1.1567967-2.41652385-.5-3.59.1338881-.24301193.30230711-.46532503.5-.66 1.17127019-1.16981351 3.0687298-1.16981351 4.24 0l1.14 1.14 4.61 4.6 1.42 1.42z" fill="#f9c795"/><path id="Shape" d="m17.83 20.16c-.6035173.0809339-1.2173747-.0237009-1.76-.3-.2800977-.1431791-.5364429-.3286921-.76-.55l-8-8c-.95245445-.9493465-1.1567967-2.41652385-.5-3.59.4533047-.26094313.96695591-.39883607 1.49-.4.79394875-.00195466 1.55629708.31089584 2.12.87l1.14 1.14 4.66 4.67 1.42 1.42z" fill="#fdd7ad"/><path id="Shape" d="m23.6 10.63-4.83 3.65-1.42-1.42-4.61-4.6c-1.1763665-1.17636652-1.1763665-3.08363346 0-4.25999997 1.1763665-1.1763665 3.0836335-1.17636652 4.26-.00000003l5.16 5.17z" fill="#fdd7ad"/><path id="Shape" d="m18.77 14.28.23 5.47c-.8859697.5365615-1.9860517.5781453-2.91.11-1.5372686-2.1766011-1.0974234-5.1763449 1-6.82l.24-.18 4.67-3.54.2-.14 1.45 1.45z" fill="#f9c795"/><rect id="Rectangle-path" fill="#fdd7ad" height="12.1" rx="3" transform="matrix(-.609 -.793 .793 -.609 24.327 42.268)" width="6" x="19.577" y="9.091"/><path id="Shape" d="m49.37 27.36c.2235571.2213079.4799023.4068209.76.55 1.1593714.5937745 2.5694346.3715582 3.49-.55l4.51-4.51c.9122835-.9171175 1.1339648-2.315725.55-3.47-.1368233-.2898636-.3229183-.5537802-.55-.78-1.1712702-1.1698135-3.0687298-1.1698135-4.24 0l-4.52 4.52c-1.1698135 1.1712702-1.1698135 3.0687298 0 4.24z" fill="#f9c795"/><path id="Shape" d="m50.13 27.91c1.1593714.5937745 2.5694346.3715582 3.49-.55l4.51-4.51c.9122835-.9171175 1.1339648-2.315725.55-3.47-.4139414-.239549-.8818401-.3702855-1.36-.38-.7953814.0007002-1.5579306.3172301-2.12.88l-4.51 4.51c-.9389911.9232586-1.1661204 2.3509282-.56 3.52z" fill="#fdd7ad"/><path id="Shape" d="m44 24.26c.2326906.2336652.5031573.4263728.8.57 1.1507042.5643026 2.5328042.3352918 3.44-.57l8-8c.9098567-.90894 1.1391395-2.2967041.57-3.45-.1436272-.2968427-.3363348-.5673094-.57-.8-1.1685093-1.1725805-3.0659727-1.1770557-4.24-.01l-8 8c-.567938.5632998-.887395 1.3300874-.887395 2.13s.319457 1.5667002.887395 2.13z" fill="#f9c795"/><path id="Shape" d="m44.79 24.83c1.1507042.5643026 2.5328042.3352918 3.44-.57l8-8c.9098567-.90894 1.1391395-2.2967041.57-3.45-.4094519-.2058307-.8617283-.3120472-1.32-.31-.7968198.0033485-1.5595722.3235606-2.12.89l-8 8c-.9052918.9071958-1.1343026 2.2892958-.57 3.44z" fill="#fdd7ad"/><path id="Shape" d="m41 19.75c.3497621.2170021.7418433.3567876 1.15.41.6035173.0809339 1.2173747-.0237009 1.76-.3.2800977-.1431791.5364429-.3286921.76-.55l8-8c.9524544-.9493465 1.1567967-2.41652385.5-3.59-.1338881-.24301193-.3023071-.46532503-.5-.66-1.1712702-1.16981351-3.0687298-1.16981351-4.24 0l-1.13 1.16-4.61 4.6-1.42 1.42z" fill="#f9c795"/><path id="Shape" d="m42.18 20.16c.6035173.0809339 1.2173747-.0237009 1.76-.3.2800977-.1431791.5364429-.3286921.76-.55l8-8c.9524544-.9493465 1.1567967-2.41652385.5-3.59-.4533047-.26094313-.9669559-.39883607-1.49-.4-.7939488-.00195466-1.5562971.31089584-2.12.87l-1.16 1.16-4.64 4.65-1.42 1.42z" fill="#fdd7ad"/><path id="Shape" d="m36.41 10.63 4.83 3.65 1.42-1.42 4.61-4.6c1.1763665-1.17912795 1.1741279-3.08863346-.005-4.26499996-1.179128-1.17636649-3.0886335-1.17412794-4.265.00499996l-5.14 5.18z" fill="#fdd7ad"/><path id="Shape" d="m41.24 14.28-.24 5.47c.8859697.5365615 1.9860517.5781453 2.91.11 1.5372686-2.1766011 1.0974234-5.1763449-1-6.82l-.24-.18-4.6-3.54-.2-.14-1.45 1.45z" fill="#f9c795"/><rect id="Rectangle-path" fill="#fdd7ad" height="12.1" rx="3" transform="matrix(.609 -.793 .793 .609 2.622 35.594)" width="6" x="34.432" y="9.086"/><circle id="Oval" cx="30" cy="30" fill="#547580" r="5"/><circle id="Oval" cx="30" cy="30" fill="#2c3e50" r="3"/></g></g></svg>